<?xml version="1.0" encoding="UTF-8"?><svg xmlns="http://www.w3.org/2000/svg" viewBox="0 0 500 500"><g id="BACKGROUND"><rect x="-.001" width="500" height="500" fill="#fff"/></g><g id="OBJECTS"><path d="M352.267,154.2l-3.208,7.126c-.221.49-.186,1.058.093,1.518l4.052,6.682c.702,1.158-.228,2.619-1.575,2.472l-7.769-.849c-.535-.058-1.064.15-1.415.557l-5.103,5.918c-.885,1.026-2.561.592-2.837-.734l-1.593-7.651c-.11-.527-.472-.965-.967-1.174l-7.206-3.025c-1.249-.524-1.355-2.253-.179-2.925l6.784-3.88c.467-.267.773-.747.817-1.283l.65-7.788c.113-1.35,1.724-1.985,2.727-1.074l5.786,5.253c.398.361.949.504,1.472.381l7.607-1.788c1.319-.31,2.42,1.026,1.864,2.262Z" fill="none" stroke="#1e1033" stroke-linecap="round" stroke-linejoin="round" stroke-width="2"/><path d="M169.029,132.255l-3.208,7.126c-.221.49-.186,1.058.093,1.518l4.052,6.682c.702,1.158-.228,2.619-1.575,2.472l-7.769-.849c-.535-.059-1.064.15-1.415.557l-5.103,5.918c-.885,1.026-2.561.592-2.838-.734l-1.593-7.651c-.11-.527-.471-.965-.967-1.174l-7.206-3.025c-1.249-.524-1.355-2.253-.179-2.925l6.784-3.88c.467-.267.773-.747.817-1.283l.65-7.788c.113-1.35,1.724-1.984,2.727-1.074l5.786,5.253c.398.361.949.504,1.472.381l7.607-1.788c1.319-.31,2.42,1.026,1.864,2.262Z" fill="none" stroke="#1e1033" stroke-linecap="round" stroke-linejoin="round" stroke-width="2"/><path d="M141.401,175.247l.475,6.114c.033.421.27.799.636,1.01l5.306,3.075c.92.533.829,1.889-.153,2.295l-5.668,2.341c-.39.161-.676.504-.764.917l-1.284,5.997c-.223,1.039-1.54,1.372-2.23.563l-3.978-4.667c-.274-.321-.688-.487-1.108-.444l-6.1.631c-1.057.109-1.781-1.041-1.225-1.947l3.209-5.226c.221-.36.251-.805.08-1.191l-2.485-5.606c-.431-.972.44-2.015,1.473-1.766l5.962,1.437c.41.099.843-.01,1.157-.292l4.564-4.096c.791-.71,2.053-.205,2.135.855Z" fill="none" stroke="#1e1033" stroke-linecap="round" stroke-linejoin="round" stroke-width="2"/><path d="M350.378,122.981l.26,3.347c.018.23.148.437.348.553l2.905,1.683c.503.292.454,1.034-.084,1.256l-3.103,1.282c-.214.088-.37.276-.419.502l-.703,3.283c-.122.569-.843.751-1.221.308l-2.178-2.555c-.15-.176-.377-.267-.607-.243l-3.339.346c-.579.06-.975-.57-.671-1.066l1.757-2.861c.121-.197.137-.441.044-.652l-1.361-3.069c-.236-.532.241-1.103.806-.967l3.264.787c.225.054.461-.006.633-.16l2.498-2.242c.433-.389,1.124-.112,1.169.468Z" fill="none" stroke="#1e1033" stroke-linecap="round" stroke-linejoin="round" stroke-width="2"/><path d="M390.875,146.887l-3.333,3.815c-.229.263-.315.621-.229.959l1.253,4.909c.217.851-.636,1.581-1.443,1.236l-4.658-1.991c-.321-.137-.688-.108-.983.079l-4.281,2.709c-.742.47-1.7-.116-1.622-.99l.454-5.046c.031-.347-.11-.688-.379-.91l-3.899-3.235c-.676-.561-.415-1.653.441-1.848l4.939-1.127c.34-.078.62-.317.749-.641l1.871-4.708c.324-.816,1.444-.906,1.894-.152l2.598,4.349c.179.299.494.491.842.514l5.056.325c.876.056,1.308,1.093.73,1.754Z" fill="none" stroke="#1e1033" stroke-linecap="round" stroke-linejoin="round" stroke-width="2"/><path d="M367.027,62.536c0,4.692-3.803,8.495-8.495,8.495h0c4.692,0,8.495,3.803,8.495,8.495,0-4.692,3.803-8.495,8.495-8.495h0c-4.692,0-8.495-3.803-8.495-8.495Z" fill="none" stroke="#1e1033" stroke-linecap="round" stroke-linejoin="round" stroke-width="2"/><path d="M391.138,191.472c0,4.692-3.803,8.495-8.495,8.495h0c4.692,0,8.495,3.803,8.495,8.495,0-4.692,3.803-8.495,8.495-8.495h0c-4.692,0-8.495-3.804-8.495-8.495Z" fill="none" stroke="#1e1033" stroke-linecap="round" stroke-linejoin="round" stroke-width="2"/><path d="M60.405,187.529c0,4.692-3.803,8.495-8.495,8.495h0c4.692,0,8.495,3.803,8.495,8.495,0-4.692,3.803-8.495,8.495-8.495h0c-4.692,0-8.495-3.804-8.495-8.495Z" fill="none" stroke="#1e1033" stroke-linecap="round" stroke-linejoin="round" stroke-width="2"/><path d="M395.858,91.122c0,2.952-2.393,5.345-5.345,5.345h0c2.952,0,5.345,2.393,5.345,5.345,0-2.952,2.393-5.345,5.345-5.345h0c-2.952,0-5.345-2.393-5.345-5.345Z" fill="none" stroke="#1e1033" stroke-linecap="round" stroke-linejoin="round" stroke-width="2"/><path d="M127.449,90.348c0,2.952-2.393,5.345-5.345,5.345h0c2.952,0,5.345,2.393,5.345,5.345,0-2.952,2.393-5.345,5.345-5.345h0c-2.952,0-5.345-2.393-5.345-5.345Z" fill="none" stroke="#1e1033" stroke-linecap="round" stroke-linejoin="round" stroke-width="2"/><path d="M103.004,147.666c0,2.952-2.393,5.345-5.345,5.345h0c2.952,0,5.345,2.393,5.345,5.345,0-2.952,2.393-5.345,5.345-5.345h0c-2.952,0-5.345-2.393-5.345-5.345Z" fill="none" stroke="#1e1033" stroke-linecap="round" stroke-linejoin="round" stroke-width="2"/><circle cx="111.776" cy="111.103" r="4.634" fill="none" stroke="#1e1033" stroke-linecap="round" stroke-linejoin="round" stroke-width="2"/><path d="M94.855,71.274c0,1.918-1.555,3.473-3.473,3.473s-3.473-1.555-3.473-3.473,1.555-3.473,3.473-3.473,3.473,1.555,3.473,3.473Z" fill="none" stroke="#1e1033" stroke-linecap="round" stroke-linejoin="round" stroke-width="2"/><path d="M72.846,138.379c0,1.09-.883,1.973-1.973,1.973s-1.973-.883-1.973-1.973.883-1.973,1.973-1.973,1.973.883,1.973,1.973Z" fill="none" stroke="#1e1033" stroke-linecap="round" stroke-linejoin="round" stroke-width="2"/><circle cx="79.05" cy="106.009" r="3.614" fill="none" stroke="#1e1033" stroke-linecap="round" stroke-linejoin="round" stroke-width="2"/><circle cx="405.243" cy="60.756" r="3.66" fill="none" stroke="#1e1033" stroke-linecap="round" stroke-linejoin="round" stroke-width="2"/><circle cx="428.273" cy="117.169" r="3.993" fill="none" stroke="#1e1033" stroke-linecap="round" stroke-linejoin="round" stroke-width="2"/><circle cx="412.273" cy="164.722" r="1.792" fill="none" stroke="#1e1033" stroke-linecap="round" stroke-linejoin="round" stroke-width="2"/><path d="M369.289,187.335c0,1.249-1.012,2.261-2.261,2.261s-2.261-1.012-2.261-2.261,1.012-2.261,2.261-2.261,2.261,1.012,2.261,2.261Z" fill="none" stroke="#1e1033" stroke-linecap="round" stroke-linejoin="round" stroke-width="2"/><circle cx="323.289" cy="75.933" r="2.198" fill="none" stroke="#1e1033" stroke-linecap="round" stroke-linejoin="round" stroke-width="2"/><circle cx="175.433" cy="74.394" r="3.12" fill="none" stroke="#1e1033" stroke-linecap="round" stroke-linejoin="round" stroke-width="2"/><path d="M344.326,44.99c0,2.746-2.226,4.972-4.971,4.972s-4.971-2.226-4.971-4.972,2.226-4.971,4.971-4.971,4.971,2.226,4.971,4.971Z" fill="none" stroke="#1e1033" stroke-linecap="round" stroke-linejoin="round" stroke-width="2"/><circle cx="145.162" cy="38.854" r="4.664" fill="none" stroke="#1e1033" stroke-linecap="round" stroke-linejoin="round" stroke-width="2"/><path d="M205.614,98.45s-26.332,4.489-29.058,14.216c-1.448,5.167,4.155,8.622,9.725,10.726,9.773,3.691,17.594,11.419,20.675,21.401,2.369,7.676,3.038,17.229-1.333,27.731-10.9,26.188-88.117,23.212-91.751,94.284-3.633,71.072,3.773,138.02,17.258,166.096,6.737,14.026,95.668,19.542,117.853,19.454,15.069,1.03,114.292-7.02,119.853-19.454,12.717-28.432,20.892-95.024,17.258-166.096-3.633-71.072-80.85-68.096-91.751-94.284-4.371-10.502-3.703-20.055-1.333-27.731,3.081-9.982,10.902-17.71,20.675-21.401,5.57-2.104,11.172-5.558,9.725-10.726-2.725-9.727-29.058-14.216-29.058-14.216" fill="none" stroke="#1e1033" stroke-linecap="round" stroke-linejoin="round" stroke-width="2"/><path d="M201.048,113.738s14.105,7.382,49.578,8.024c35.473.642,51.199-8.024,51.199-8.024" fill="none" stroke="#1e1033" stroke-linecap="round" stroke-linejoin="round" stroke-width="2"/><path d="M209.721,116.784l-10.598-55.682s15.726-15.405,51.351-13.801,50.067,11.554,50.067,11.554l-10.141,58.911" fill="none" stroke="#1e1033" stroke-linecap="round" stroke-linejoin="round" stroke-width="2"/><path d="M199.122,61.102s8.344,12.838,52.314,11.554,49.105-13.801,49.105-13.801" fill="none" stroke="#1e1033" stroke-linecap="round" stroke-linejoin="round" stroke-width="2"/><path d="M216.132,82.475c-3.344,5.596,5.777,10.401,8.666,4.624s-5.135-10.531-8.666-4.624Z" fill="none" stroke="#1e1033" stroke-linecap="round" stroke-linejoin="round" stroke-width="2"/><path d="M223.514,98.45c-7.939,2.981-3.209,15.929,7.703,11.757,10.912-4.172-2.888-13.564-7.703-11.757Z" fill="none" stroke="#1e1033" stroke-linecap="round" stroke-linejoin="round" stroke-width="2"/><path d="M283.531,79.763c-4.814-1.33-11.554,10.321-3.851,9.952,7.703-.37,8.666-8.622,3.851-9.952Z" fill="none" stroke="#1e1033" stroke-linecap="round" stroke-linejoin="round" stroke-width="2"/><path d="M269.409,98.222c-4.861,2.535-.963,12.984,4.814,12.806,5.777-.178.321-15.483-4.814-12.806Z" fill="none" stroke="#1e1033" stroke-linecap="round" stroke-linejoin="round" stroke-width="2"/><path d="M281.329,94.802c-2.933,2.568,3.273,6.533,5.145,3.106s-2.212-5.674-5.145-3.106Z" fill="none" stroke="#1e1033" stroke-linecap="round" stroke-linejoin="round" stroke-width="2"/><path d="M267.208,55.325c-5.501.642-4.539,8.345,3.164,8.024,7.703-.321,2.337-8.666-3.164-8.024Z" fill="none" stroke="#1e1033" stroke-linecap="round" stroke-linejoin="round" stroke-width="2"/><path d="M227.452,65.115c-.526,3.336,6.752,2.202,5.928.147-.823-2.055-5.517-2.758-5.928-.147Z" fill="none" stroke="#1e1033" stroke-linecap="round" stroke-linejoin="round" stroke-width="2"/><path d="M213.565,60.781c-.618,3.706,9.949,4.814,8.987,0s-8.345-3.851-8.987,0Z" fill="none" stroke="#1e1033" stroke-linecap="round" stroke-linejoin="round" stroke-width="2"/><path d="M211.318,93.693c1.848,3.428,4.645,2.421,4.088,0s-4.848-1.41-4.088,0Z" fill="none" stroke="#1e1033" stroke-linecap="round" stroke-linejoin="round" stroke-width="2"/><path d="M243.612,82.475c-5.587,4.236-1.851,10.836,5.21,7.248,7.061-3.588-2.075-9.625-5.21-7.248Z" fill="none" stroke="#1e1033" stroke-linecap="round" stroke-linejoin="round" stroke-width="2"/><path d="M211.228,133.284s39.143,11.971,77.274-.887" fill="none" stroke="#1e1033" stroke-linecap="round" stroke-linejoin="round" stroke-width="2"/><path d="M143.465,441.163s3.448,15.614,12.375,17.743c27.099,6.461,84.998,9.256,134.46,6.778,40.153-2.012,56.14-7.762,60.039-13.238,3.899-5.476,6.487-12.961,6.487-12.961" fill="none" stroke="#1e1033" stroke-linecap="round" stroke-linejoin="round" stroke-width="2"/><line x1="272.953" y1="452.446" x2="272.953" y2="466.047" fill="none" stroke="#1e1033" stroke-linecap="round" stroke-linejoin="round" stroke-width="2"/><line x1="295.603" y1="449.649" x2="294.321" y2="465.367" fill="none" stroke="#1e1033" stroke-linecap="round" stroke-linejoin="round" stroke-width="2"/><line x1="316.626" y1="447.4" x2="313.998" y2="463.813" fill="none" stroke="#1e1033" stroke-linecap="round" stroke-linejoin="round" stroke-width="2"/><line x1="338.156" y1="443.84" x2="334.432" y2="459.905" fill="none" stroke="#1e1033" stroke-linecap="round" stroke-linejoin="round" stroke-width="2"/><line x1="231.249" y1="452.446" x2="231.249" y2="466.047" fill="none" stroke="#1e1033" stroke-linecap="round" stroke-linejoin="round" stroke-width="2"/><line x1="208.657" y1="450.356" x2="209.881" y2="465.367" fill="none" stroke="#1e1033" stroke-linecap="round" stroke-linejoin="round" stroke-width="2"/><line x1="187.725" y1="448.329" x2="190.204" y2="463.813" fill="none" stroke="#1e1033" stroke-linecap="round" stroke-linejoin="round" stroke-width="2"/><line x1="166.549" y1="446.012" x2="170.159" y2="461.586" fill="none" stroke="#1e1033" stroke-linecap="round" stroke-linejoin="round" stroke-width="2"/><path d="M334.432,434.6s23.022-4.167,26.866-7.497c3.321-2.877,5.657-9.402,9.511-32.656" fill="none" stroke="#1e1033" stroke-linecap="round" stroke-linejoin="round" stroke-width="2"/><path d="M120.015,282.265s-1.774,44.368,4.434,89.484" fill="none" stroke="#1e1033" stroke-linecap="round" stroke-linejoin="round" stroke-width="2"/><path d="M358.084,226.833s21.135,11.035,19.652,43.795" fill="none" stroke="#1e1033" stroke-linecap="round" stroke-linejoin="round" stroke-width="2"/><path d="M267.208,128.7s15.534-1.376,27.163-5.897" fill="none" stroke="#1e1033" stroke-linecap="round" stroke-linejoin="round" stroke-width="2"/><path d="M203.19,82.475s6.418-1.872,6.08-5.587-8.124-5.153-8.124-5.153" fill="none" stroke="#1e1033" stroke-linecap="round" stroke-linejoin="round" stroke-width="2"/><path d="M231.674,48.091s2.136,9.211,14.856,8.423c12.72-.788,14.296-8.423,14.296-8.423" fill="none" stroke="#1e1033" stroke-linecap="round" stroke-linejoin="round" stroke-width="2"/><path d="M256.102,72.471s-1.13-4.663,4.724-5.245c5.853-.582,7.453,4.227,7.453,4.227" fill="none" stroke="#1e1033" stroke-linecap="round" stroke-linejoin="round" stroke-width="2"/><path d="M241.785,121.446s1.03-11.576,11.499-11.801,13.924,11.257,13.924,11.257" fill="none" stroke="#1e1033" stroke-linecap="round" stroke-linejoin="round" stroke-width="2"/><line x1="253.081" y1="453.032" x2="253.081" y2="466.578" fill="none" stroke="#1e1033" stroke-linecap="round" stroke-linejoin="round" stroke-width="2"/><path d="M143.465,430.722s24.949,6.353,38.443,7.836" fill="none" stroke="#1e1033" stroke-linecap="round" stroke-linejoin="round" stroke-width="2"/><path d="M173.199,339.522s3.722-1.66,9.081-2.49c5.359-.829,9.95-1.004,9.95-1.004,0,0,3.377,11.184-8.179,13.338-11.556,2.154-10.852-9.844-10.852-9.844Z" fill="#1e1033"/><path d="M168.879,335.392c.906,5.493-2.812,10.68-8.305,11.586-5.493.906-10.68-2.812-11.587-8.305-.906-5.493,2.812-10.68,8.305-11.586,5.493-.906,10.68,2.812,11.587,8.305Z" fill="#1e1033"/><path d="M164.732,332.388c.272,1.65-.845,3.208-2.494,3.48-1.65.272-3.208-.845-3.48-2.494-.272-1.65.845-3.208,2.494-3.48,1.65-.272,3.208.845,3.48,2.494Z" fill="#fff"/><path d="M215.347,327.726c.906,5.493-2.812,10.68-8.305,11.586-5.493.906-10.68-2.812-11.587-8.305-.906-5.493,2.812-10.68,8.305-11.586,5.493-.906,10.68,2.812,11.587,8.305Z" fill="#1e1033"/><path d="M204.663,325.659c.272,1.65-.845,3.208-2.494,3.48-1.65.272-3.208-.845-3.48-2.494-.272-1.65.845-3.208,2.494-3.48,1.65-.272,3.208.845,3.48,2.494Z" fill="#fff"/><path d="M178.297,345.886s1.817,2.494,5.237,1.964c3.42-.529,5.454-3.454,5.454-3.454,0,0-6.048-4.08-10.691,1.489Z" fill="#fff"/><path d="M130.837,318.18s.484,77.274,14.45,99.346c45.781,11.479,87.321,9.436,87.321,9.436,0,0,15.2-47.715,3.179-81.055-12.021-33.339-31.085-40.837-31.085-40.837,0,0,17.755-45.786,6.524-51.672-12.992-6.81-20.715,49.037-20.715,49.037l-13.302-.368s1.016-54.84-12.439-52.942c-12.519,1.766-.863,52.942-.863,52.942l-33.073,16.113Z" fill="none" stroke="#1e1033" stroke-linecap="round" stroke-linejoin="round" stroke-width="2"/><path d="M169.015,301.636c.79-2.289-6.459-31.287-2.262-33.195,4.197-1.908,6.438,33.195,6.438,33.195h-4.176Z" fill="none" stroke="#1e1033" stroke-linecap="round" stroke-linejoin="round" stroke-width="2"/><path d="M195.32,303.488s6.891-28.942,9.384-29.324c2.493-.381-6.056,29.324-6.056,29.324h-3.328Z" fill="none" stroke="#1e1033" stroke-linecap="round" stroke-linejoin="round" stroke-width="2"/><path d="M143.86,352.764c-.823,4.389,9.27,9.303,11.35,6.105,3.723-5.723-10.205-12.209-11.35-6.105Z" fill="none" stroke="#1e1033" stroke-linecap="round" stroke-linejoin="round" stroke-width="2"/><path d="M215.483,347.967c3.167,3.608,13.462-5.427,10.028-8.518s-13.569,4.484-10.028,8.518Z" fill="none" stroke="#1e1033" stroke-linecap="round" stroke-linejoin="round" stroke-width="2"/><path d="M161.745,421.143s-14.858-56.933,23.118-61.13c37.977-4.197,29.237,66.02,29.237,66.02" fill="none" stroke="#1e1033" stroke-linecap="round" stroke-linejoin="round" stroke-width="2"/><path d="M178.299,330.424c-.109,1.018,3.823,3.172,4.641,2.865s3.751-2.795,3.103-4.109c-.648-1.314-7.471-1.314-7.743,1.244Z" fill="none" stroke="#1e1033" stroke-linecap="round" stroke-linejoin="round" stroke-width="2"/><path d="M185.198,396.401c0,2.377-1.927,4.305-4.305,4.305s-4.305-1.927-4.305-4.305,1.927-4.305,4.305-4.305,4.305,1.927,4.305,4.305Z" fill="none" stroke="#1e1033" stroke-linecap="round" stroke-linejoin="round" stroke-width="2"/><path d="M177.888,393.32s-4.561-11.441,3.005-11.553c7.256-.108,3.003,11.553,3.003,11.553,0,0,8.683-5.45,9.714.208.961,5.278-8.951,4.955-8.951,4.955,0,0,8.483,5.587,3.63,9.607-4.647,3.849-8.846-7.64-8.846-7.64,0,0-2.574,10.728-8.236,6.66-5.862-4.212,5.381-9.787,5.381-9.787,0,0-11.91-.536-9.441-6.035,2.66-5.926,10.741,2.032,10.741,2.032Z" fill="none" stroke="#1e1033" stroke-linecap="round" stroke-linejoin="round" stroke-width="2"/><line x1="182.94" y1="333.29" x2="183.642" y2="336.833" fill="none" stroke="#1e1033" stroke-linecap="round" stroke-linejoin="round" stroke-width="2"/><path d="M177.69,309.573s1.329,4.09,4.526,5.323c2.031-2.701,2.323-4.158,2.323-4.158l4.45,3.351s2.836-3.788,1.816-7.285" fill="none" stroke="#1e1033" stroke-linecap="round" stroke-linejoin="round" stroke-width="2"/><path d="M216.468,372.192s5.725,9.5,10.622,7.134c4.897-2.366,5.519-12.658,5.519-12.658" fill="none" stroke="#1e1033" stroke-linecap="round" stroke-linejoin="round" stroke-width="2"/><path d="M139.984,371.749s-.989,10.353,3.828,12.659c4.818,2.306,9.03-5.525,9.03-5.525" fill="none" stroke="#1e1033" stroke-linecap="round" stroke-linejoin="round" stroke-width="2"/><path d="M232.609,426.962s49.752,2.874,81.421-4.757c31.668-7.631,0-80.639-10.302-86.296-10.302-5.657-23.548,0-23.548,0,0,0,1.037-18.629-4.686-19.011-5.723-.381-4.579,15.983-4.579,15.983,0,0-6.868-10.758-14.117-5.93-7.249,4.828,6.105,12.498,6.105,12.498,0,0-9.157,1.236-10.302,6.322-1.145,5.086,11.912,2.175,11.912,2.175l-24.098,17.028" fill="none" stroke="#1e1033" stroke-linecap="round" stroke-linejoin="round" stroke-width="2"/><path d="M289.823,363.849l10.768,5.019,2.471-9.824s-8.837-3.978-13.24,4.805Z" fill="none" stroke="#1e1033" stroke-linecap="round" stroke-linejoin="round" stroke-width="2"/><path d="M287.721,358.869c0,2.082-1.688,3.771-3.771,3.771s-3.771-1.688-3.771-3.771,1.688-3.771,3.771-3.771,3.771,1.688,3.771,3.771Z" fill="#1e1033"/><path d="M306.858,351.737c0,2.083-1.688,3.771-3.771,3.771s-3.771-1.688-3.771-3.771,1.688-3.771,3.771-3.771,3.771,1.688,3.771,3.771Z" fill="#1e1033"/><path d="M265.792,378.884s-11.33,2.741-12.609,8.041c-1.279,5.299,9.868,2.01,9.868,2.01,0,0-11.513,6.579-7.858,11.695,3.655,5.117,12.609-5.117,12.609-5.117,0,0-2.924,13.157,3.472,14.436,6.396,1.279,7.492-18.091,7.492-18.091" fill="none" stroke="#1e1033" stroke-linecap="round" stroke-linejoin="round" stroke-width="2"/><path d="M289.417,426.033s-2.311-22.72,16.676-28.693c14.521-4.569,21.548,5.305,21.548,5.305" fill="none" stroke="#1e1033" stroke-linecap="round" stroke-linejoin="round" stroke-width="2"/><path d="M276.828,355.508s1.046-6.428,6.424-5.912" fill="none" stroke="#1e1033" stroke-linecap="round" stroke-linejoin="round" stroke-width="2"/><path d="M299.317,344.13s4.42-4.679,8.066.926" fill="none" stroke="#1e1033" stroke-linecap="round" stroke-linejoin="round" stroke-width="2"/><path d="M316.816,421.302s27.45-2.457,39.861-12.199c6.093-19.386,12.158-72.333,8.088-93.875-4.988-26.404-49.549-46.862-85.998-28.931-32.781,16.126-51.969,40.653-51.969,40.653" fill="none" stroke="#1e1033" stroke-linecap="round" stroke-linejoin="round" stroke-width="2"/><path d="M276.143,287.622s2.87-11.883-3.138-15.953c-6.009-4.071-18.414,4.652-19.384,11.436-.969,6.784,9.7,11.943,9.7,11.943" fill="none" stroke="#1e1033" stroke-linecap="round" stroke-linejoin="round" stroke-width="2"/><path d="M266.693,292.936s-9.583-7.264-1.636-12.23,7.366,8.119,7.366,8.119" fill="none" stroke="#1e1033" stroke-linecap="round" stroke-linejoin="round" stroke-width="2"/><path d="M356.759,298.855s12.143-1.414,13.885-8.459c1.743-7.046-10.73-15.672-17.431-14.236-6.701,1.435-7.854,13.229-7.854,13.229" fill="none" stroke="#1e1033" stroke-linecap="round" stroke-linejoin="round" stroke-width="2"/><path d="M348.506,291.824s3.504-11.503,10.911-5.762c7.407,5.741-5.073,9.718-5.073,9.718" fill="none" stroke="#1e1033" stroke-linecap="round" stroke-linejoin="round" stroke-width="2"/><path d="M317.378,298.855c-7.995,0-18.369,7.561-16.584,16.207,1.785,8.646,32.712,8.813,34.541.499,1.829-8.314-6.419-16.707-17.957-16.707Z" fill="none" stroke="#1e1033" stroke-linecap="round" stroke-linejoin="round" stroke-width="2"/><circle cx="294.738" cy="303.139" r="4.284" fill="#1e1033"/><circle cx="341.37" cy="302.132" r="4.284" fill="#1e1033"/><path d="M313.554,302.99c-1.002,1.219.782,3.845,2.445,4.842s4.453,1.12,6.119-.04c2.254-1.57,1.579-4.802,1.579-4.802-.166-.73-8.147-2.429-10.142,0Z" fill="#1e1033"/><line x1="319.207" y1="306.416" x2="319.207" y2="314.896" fill="none" stroke="#1e1033" stroke-linecap="round" stroke-linejoin="round" stroke-width="2"/><path d="M321.217,280.708s5.249,5.806,3.149,7.641c-2.1,1.835-7.853-2.09-7.853-2.09,0,0,.23,5.306-3.913,5.306s-5.984-7.108-5.984-7.108c0,0-1.808,7.914-6.025,6.418s-2.717-10.56-2.717-10.56" fill="none" stroke="#1e1033" stroke-linecap="round" stroke-linejoin="round" stroke-width="2"/><path d="M321.028,366.826s29.488-3.391,40.27,21.168" fill="none" stroke="#1e1033" stroke-linecap="round" stroke-linejoin="round" stroke-width="2"/><path d="M343.798,342.866s-1.397,10.81,0,14.149,4.708-1.508,4.708-1.508c0,0-.285,4.847,3.439,4.847s3.191-4.847,3.191-4.847c0,0,3.094,1.317,5.189-.409,2.095-1.727,0-14.53,0-14.53" fill="none" stroke="#1e1033" stroke-linecap="round" stroke-linejoin="round" stroke-width="2"/><path d="M279.118,303.488c-1.91,3.011,4.623,5.554,6.252,2.928,1.63-2.627-2.96-8.117-6.252-2.928Z" fill="none" stroke="#1e1033" stroke-linecap="round" stroke-linejoin="round" stroke-width="2"/><path d="M348.506,307.512c1.989,2.753,6.63,0,3.711-3.088-1.907-2.017-4.655,1.782-3.711,3.088Z" fill="none" stroke="#1e1033" stroke-linecap="round" stroke-linejoin="round" stroke-width="2"/><path d="M241.841,318.18s-2.793,4.93,0,6.559c2.793,1.629,6.751-1.616,6.751-1.616" fill="none" stroke="#1e1033" stroke-linecap="round" stroke-linejoin="round" stroke-width="2"/><path d="M258.126,307.512s-4.879,3.261-3.482,6.287c1.397,3.026,8.846,0,8.846,0" fill="none" stroke="#1e1033" stroke-linecap="round" stroke-linejoin="round" stroke-width="2"/><path d="M244.595,335.909s-2.056,6.208.97,6.714c3.026.506,6.052-4.533,6.052-4.533" fill="none" stroke="#1e1033" stroke-linecap="round" stroke-linejoin="round" stroke-width="2"/><path d="M324.35,377.331s26.01,2.801,35.427,19.07" fill="none" stroke="#1e1033" stroke-linecap="round" stroke-linejoin="round" stroke-width="2"/><path d="M327.641,392.933s18.511.016,30.443,9.603" fill="none" stroke="#1e1033" stroke-linecap="round" stroke-linejoin="round" stroke-width="2"/><path d="M327.641,407.947s12.027-4.07,24.576,3.136" fill="none" stroke="#1e1033" stroke-linecap="round" stroke-linejoin="round" stroke-width="2"/><path d="M130.837,318.18s-6.389-53.941,15.781-75.667,55.125-27.49,71.458-22.613c16.333,4.877,39.4,25.995,43.829,53.124" fill="none" stroke="#1e1033" stroke-linecap="round" stroke-linejoin="round" stroke-width="2"/><path d="M255.446,253.89s27.946-1.179,34.935-11.821c6.989-10.641,5.652-38.575-3.434-41.678-9.086-3.104-12.553,6.047-13.142,15.675-1.373,22.461-19.742,17.84-32.895,18.375" fill="none" stroke="#1e1033" stroke-linecap="round" stroke-linejoin="round" stroke-width="2"/><path d="M278.666,207.488c-1.72.86.084,4.469,2.192,2.614s-.843-3.288-2.192-2.614Z" fill="#1e1033"/><path d="M287.591,208.521c-1.72.86.084,4.469,2.192,2.614,2.108-1.855-.843-3.288-2.192-2.614Z" fill="#1e1033"/><path d="M284.877,204.1c-1.855-.221-3.921,3.586-.506,4.197,3.376.604,2.361-3.976.506-4.197Z" fill="#1e1033"/><path d="M282.39,209.665c-1.673.595-3.133,6.476,1.671,6.371,4.804-.105,3.029-8.042-1.671-6.371Z" fill="#1e1033"/><path d="M187.188,228.103c-2.835,1.92-1.829,9.311,4.323,6.983s.831-10.475-4.323-6.983Z" fill="#1e1033"/><path d="M206.668,222.665c-2.835,1.92-1.829,9.311,4.323,6.983s.831-10.475-4.323-6.983Z" fill="#1e1033"/><path d="M198.052,232.153s4.589,3.382,5.9-1.771" fill="none" stroke="#1e1033" stroke-linecap="round" stroke-linejoin="round" stroke-width="2"/><circle cx="180.48" cy="239.701" r="4.166" fill="none" stroke="#1e1033" stroke-linecap="round" stroke-linejoin="round" stroke-width="2"/><circle cx="221.246" cy="229.076" r="4.166" fill="none" stroke="#1e1033" stroke-linecap="round" stroke-linejoin="round" stroke-width="2"/><path d="M130.837,285.002s16.405-.045,29.727-1.37" fill="none" stroke="#1e1033" stroke-linecap="round" stroke-linejoin="round" stroke-width="2"/><line x1="176.471" y1="279.581" x2="195.944" y2="276.002" fill="none" stroke="#1e1033" stroke-linecap="round" stroke-linejoin="round" stroke-width="2"/><path d="M214.1,272.327s31.03-4.69,44.026-12.613" fill="none" stroke="#1e1033" stroke-linecap="round" stroke-linejoin="round" stroke-width="2"/><path d="M157.207,233.816s-1.919-9.848,3.358-17.535c11.269,1.398,14.989,7.899,14.989,7.899" fill="none" stroke="#1e1033" stroke-linecap="round" stroke-linejoin="round" stroke-width="2"/><polyline points="163.135 229.076 165.436 221.807 171.277 225.952" fill="none" stroke="#1e1033" stroke-linecap="round" stroke-linejoin="round" stroke-width="2"/><path d="M194.274,219.162s1.443-10.524,10.885-14.62c9.828,7.309,10.722,14.795,10.722,14.795" fill="none" stroke="#1e1033" stroke-linecap="round" stroke-linejoin="round" stroke-width="2"/><polyline points="201.002 218.283 205.159 210.625 209.457 218.283" fill="none" stroke="#1e1033" stroke-linecap="round" stroke-linejoin="round" stroke-width="2"/><path d="M233.875,277.676c-1.071,4.997,8.808,7.136,12.545,1.79,3.737-5.347-10.676-10.51-12.545-1.79Z" fill="none" stroke="#1e1033" stroke-linecap="round" stroke-linejoin="round" stroke-width="2"/><path d="M236.113,287.428c-3.84,4.23-2.463,12.334,7.597,10.419,10.06-1.915-2.301-16.254-7.597-10.419Z" fill="none" stroke="#1e1033" stroke-linecap="round" stroke-linejoin="round" stroke-width="2"/><path d="M220.473,285.94c.11,3.138,9.996,5.625,9.996-.938,0-2.794-10.197-4.784-9.996.938Z" fill="none" stroke="#1e1033" stroke-linecap="round" stroke-linejoin="round" stroke-width="2"/><circle cx="188.533" cy="230.097" r="1.443" fill="#fff"/><circle cx="208.014" cy="224.509" r="1.443" fill="#fff"/><path d="M179.812,222.653s-1.713-7.973,4.835-13.682" fill="none" stroke="#1e1033" stroke-linecap="round" stroke-linejoin="round" stroke-width="2"/><path d="M185.07,221.088s-.748-7.848,5.903-10.786" fill="none" stroke="#1e1033" stroke-linecap="round" stroke-linejoin="round" stroke-width="2"/><path d="M136.786,291.565c-2.789,2.481,2.37,10.898,7.026,6.57,4.656-4.327-4.237-9.052-7.026-6.57Z" fill="none" stroke="#1e1033" stroke-linecap="round" stroke-linejoin="round" stroke-width="2"/><path d="M134.764,305.755c-.112,3.306,6.142,3.166,5.804,0-.337-3.165-5.693-3.306-5.804,0Z" fill="none" stroke="#1e1033" stroke-linecap="round" stroke-linejoin="round" stroke-width="2"/><circle cx="321.434" cy="246.765" r="12.949" transform="translate(7.42 502.905) rotate(-76.718)" fill="none" stroke="#1e1033" stroke-linecap="round" stroke-linejoin="round" stroke-width="2"/><path d="M328.426,243.433c-.774,1.389-2.873,2.102-5.067.879-2.194-1.223-3.652-3.92-2.878-5.309s3.181-1.524,5.375-.3,3.345,3.341,2.57,4.73Z" fill="none" stroke="#1e1033" stroke-linecap="round" stroke-linejoin="round" stroke-width="2"/><circle cx="245.177" cy="196.022" r="12.949" fill="none" stroke="#1e1033" stroke-linecap="round" stroke-linejoin="round" stroke-width="2"/><path d="M250.712,191.878c-.774,1.389-1.683.372-3.072-.403s-2.732-1.013-1.958-2.402c.775-1.389,2.528-1.887,3.917-1.113,1.389.774,1.887,2.528,1.113,3.917Z" fill="none" stroke="#1e1033" stroke-linecap="round" stroke-linejoin="round" stroke-width="2"/><path d="M302.037,255.24c4.328,3.089,5.332,9.102,2.243,13.43-3.089,4.328-9.102,5.332-13.43,2.243-4.328-3.089-5.332-9.102-2.243-13.43,3.089-4.328,9.102-5.332,13.43-2.243Z" fill="none" stroke="#1e1033" stroke-linecap="round" stroke-linejoin="round" stroke-width="2"/><path d="M292.456,259.77c-.506-1.069-.05-2.345,1.019-2.851,1.069-.506,2.345-.05,2.851,1.019" fill="none" stroke="#1e1033" stroke-linecap="round" stroke-linejoin="round" stroke-width="2"/><path d="M313.566,223.085c0,2.07-1.678,3.747-3.747,3.747s-3.747-1.678-3.747-3.747,1.678-3.747,3.747-3.747,3.747,1.678,3.747,3.747Z" fill="none" stroke="#1e1033" stroke-linecap="round" stroke-linejoin="round" stroke-width="2"/><path d="M327.838,213.627c0,2.571-2.084,4.656-4.655,4.656s-4.656-2.084-4.656-4.656,2.084-4.656,4.656-4.656,4.655,2.084,4.655,4.656Z" fill="none" stroke="#1e1033" stroke-linecap="round" stroke-linejoin="round" stroke-width="2"/><circle cx="349.394" cy="253.75" r="3.74" fill="none" stroke="#1e1033" stroke-linecap="round" stroke-linejoin="round" stroke-width="2"/><circle cx="219.824" cy="194.024" r="3.943" fill="none" stroke="#1e1033" stroke-linecap="round" stroke-linejoin="round" stroke-width="2"/><circle cx="267.437" cy="168.024" r="9.311" transform="translate(42.464 389.702) rotate(-76.717)" fill="none" stroke="#1e1033" stroke-linecap="round" stroke-linejoin="round" stroke-width="2"/><path d="M247.537,164.242c0,1.83-1.483,3.313-3.313,3.313s-3.313-1.483-3.313-3.313,1.483-3.313,3.313-3.313,3.313,1.483,3.313,3.313Z" fill="none" stroke="#1e1033" stroke-linecap="round" stroke-linejoin="round" stroke-width="2"/><path d="M377.885,410.01s56.547,18.609,78.784-59.756c-51.462-16.102-75.449,34.121-75.449,34.121" fill="none" stroke="#1e1033" stroke-linecap="round" stroke-linejoin="round" stroke-width="2"/><path d="M456.669,350.255s-42.695,21.482-77.437,45.879" fill="none" stroke="#1e1033" stroke-linecap="round" stroke-linejoin="round" stroke-width="2"/><polyline points="441.455 384.408 415.091 373.194 421.937 349.804" fill="none" stroke="#1e1033" stroke-linecap="round" stroke-linejoin="round" stroke-width="2"/><polyline points="417.277 406.212 393.209 386.72 396.085 364.512" fill="none" stroke="#1e1033" stroke-linecap="round" stroke-linejoin="round" stroke-width="2"/><path d="M405.243,357.015s7.273-12.578,25.953-25.91c18.743-13.377,33.919-36.874,25.938-57.418-18.622,29.337-64.952,9.627-72.381,80.67" fill="none" stroke="#1e1033" stroke-linecap="round" stroke-linejoin="round" stroke-width="2"/><path d="M457.135,273.687s0,22.092-29.571,36.577c-25.927,12.7-40.826,33.193-44.025,56.403" fill="none" stroke="#1e1033" stroke-linecap="round" stroke-linejoin="round" stroke-width="2"/><path d="M386.844,314.896s48.343-31.173,30.053-83.541" fill="none" stroke="#1e1033" stroke-linecap="round" stroke-linejoin="round" stroke-width="2"/><path d="M421.028,254.429s15.157,2.691,12.829-16.091c-10.641,5.162-12.829,16.091-12.829,16.091Z" fill="none" stroke="#1e1033" stroke-linecap="round" stroke-linejoin="round" stroke-width="2"/><path d="M420.337,246.765c-1.777-.272-13.748,4.748-17.739-11.23,9.976.317,17.739,11.23,17.739,11.23Z" fill="none" stroke="#1e1033" stroke-linecap="round" stroke-linejoin="round" stroke-width="2"/><path d="M418.984,270.628s15.538,5.518,20.526-11.969c-14.101-2.807-20.526,11.969-20.526,11.969Z" fill="none" stroke="#1e1033" stroke-linecap="round" stroke-linejoin="round" stroke-width="2"/><path d="M416.671,277.791s-15.454-2.338-14.073-20.246c12.637,4.91,14.073,20.246,14.073,20.246Z" fill="none" stroke="#1e1033" stroke-linecap="round" stroke-linejoin="round" stroke-width="2"/><path d="M411.065,289.131s9.582,8.348,18.183-4.675c-8.692-4.377-18.183,4.675-18.183,4.675Z" fill="none" stroke="#1e1033" stroke-linecap="round" stroke-linejoin="round" stroke-width="2"/><path d="M403.937,299.103s-12.135-6.664-6.66-21.312c8.646,4.949,6.66,21.312,6.66,21.312Z" fill="none" stroke="#1e1033" stroke-linecap="round" stroke-linejoin="round" stroke-width="2"/><path d="M416.897,231.355s6.526-12.182-9.408-19.2c-.34,15.465,9.408,19.2,9.408,19.2Z" fill="none" stroke="#1e1033" stroke-linecap="round" stroke-linejoin="round" stroke-width="2"/><path d="M393.209,411.94s8.798,2.021,8.48,21.479c-23.604-3.19-26.137-20.527-26.137-20.527" fill="none" stroke="#1e1033" stroke-linecap="round" stroke-linejoin="round" stroke-width="2"/><path d="M408.157,415.693s20.096-3.509,27.751,26.794c-28.449,0-27.751-26.794-27.751-26.794Z" fill="none" stroke="#1e1033" stroke-linecap="round" stroke-linejoin="round" stroke-width="2"/><path d="M428.273,411.94s6.27,10.023,26.366,3.63c-12.44-14.686-26.366-3.63-26.366-3.63Z" fill="none" stroke="#1e1033" stroke-linecap="round" stroke-linejoin="round" stroke-width="2"/><polyline points="439.873 288.258 436.393 305.175 454.638 304.157" fill="none" stroke="#1e1033" stroke-linecap="round" stroke-linejoin="round" stroke-width="2"/><polyline points="427.564 293.554 421.03 312.937 445.516 317.956" fill="none" stroke="#1e1033" stroke-linecap="round" stroke-linejoin="round" stroke-width="2"/><polyline points="406.226 305.175 403.937 326.731 429.247 332.526" fill="none" stroke="#1e1033" stroke-linecap="round" stroke-linejoin="round" stroke-width="2"/><polyline points="394.044 320.177 391.672 342.623 415.091 344.328" fill="none" stroke="#1e1033" stroke-linecap="round" stroke-linejoin="round" stroke-width="2"/><path d="M441.456,337.032s1.805-14.094,23.975-13.908c-6.119,16.324-23.975,13.908-23.975,13.908Z" fill="none" stroke="#1e1033" stroke-linecap="round" stroke-linejoin="round" stroke-width="2"/><path d="M121.571,410.01s-56.547,18.609-78.784-59.756c51.462-16.102,75.449,34.121,75.449,34.121" fill="none" stroke="#1e1033" stroke-linecap="round" stroke-linejoin="round" stroke-width="2"/><path d="M42.787,350.255s42.695,21.482,77.437,45.879" fill="none" stroke="#1e1033" stroke-linecap="round" stroke-linejoin="round" stroke-width="2"/><polyline points="58.001 384.408 84.365 373.194 77.519 349.804" fill="none" stroke="#1e1033" stroke-linecap="round" stroke-linejoin="round" stroke-width="2"/><polyline points="82.179 406.212 106.247 386.72 103.371 364.512" fill="none" stroke="#1e1033" stroke-linecap="round" stroke-linejoin="round" stroke-width="2"/><path d="M94.213,357.015s-7.273-12.578-25.953-25.91c-18.743-13.377-33.919-36.874-25.938-57.418,18.622,29.337,64.952,9.627,72.381,80.67" fill="none" stroke="#1e1033" stroke-linecap="round" stroke-linejoin="round" stroke-width="2"/><path d="M42.322,273.687s0,22.092,29.571,36.577c25.927,12.7,40.826,33.193,44.025,56.403" fill="none" stroke="#1e1033" stroke-linecap="round" stroke-linejoin="round" stroke-width="2"/><path d="M112.612,314.896s-48.343-31.173-30.053-83.541" fill="none" stroke="#1e1033" stroke-linecap="round" stroke-linejoin="round" stroke-width="2"/><path d="M78.429,254.429s-15.157,2.691-12.829-16.091c10.641,5.162,12.829,16.091,12.829,16.091Z" fill="none" stroke="#1e1033" stroke-linecap="round" stroke-linejoin="round" stroke-width="2"/><path d="M79.119,246.765c1.777-.272,13.748,4.748,17.739-11.23-9.976.317-17.739,11.23-17.739,11.23Z" fill="none" stroke="#1e1033" stroke-linecap="round" stroke-linejoin="round" stroke-width="2"/><path d="M80.472,270.628s-15.538,5.518-20.526-11.969c14.101-2.807,20.526,11.969,20.526,11.969Z" fill="none" stroke="#1e1033" stroke-linecap="round" stroke-linejoin="round" stroke-width="2"/><path d="M82.786,277.791s15.454-2.338,14.073-20.246c-12.637,4.91-14.073,20.246-14.073,20.246Z" fill="none" stroke="#1e1033" stroke-linecap="round" stroke-linejoin="round" stroke-width="2"/><path d="M88.391,289.131s-9.582,8.348-18.183-4.675c8.692-4.377,18.183,4.675,18.183,4.675Z" fill="none" stroke="#1e1033" stroke-linecap="round" stroke-linejoin="round" stroke-width="2"/><path d="M95.519,299.103s12.135-6.664,6.66-21.312c-8.646,4.949-6.66,21.312-6.66,21.312Z" fill="none" stroke="#1e1033" stroke-linecap="round" stroke-linejoin="round" stroke-width="2"/><path d="M82.559,231.355s-6.526-12.182,9.408-19.2c.34,15.465-9.408,19.2-9.408,19.2Z" fill="none" stroke="#1e1033" stroke-linecap="round" stroke-linejoin="round" stroke-width="2"/><path d="M106.247,411.94s-8.798,2.021-8.48,21.479c23.604-3.19,26.137-20.527,26.137-20.527" fill="none" stroke="#1e1033" stroke-linecap="round" stroke-linejoin="round" stroke-width="2"/><path d="M91.299,415.693s-20.096-3.509-27.751,26.794c28.449,0,27.751-26.794,27.751-26.794Z" fill="none" stroke="#1e1033" stroke-linecap="round" stroke-linejoin="round" stroke-width="2"/><path d="M71.183,411.94s-6.27,10.023-26.366,3.63c12.44-14.686,26.366-3.63,26.366-3.63Z" fill="none" stroke="#1e1033" stroke-linecap="round" stroke-linejoin="round" stroke-width="2"/><polyline points="59.583 288.258 63.063 305.175 44.818 304.157" fill="none" stroke="#1e1033" stroke-linecap="round" stroke-linejoin="round" stroke-width="2"/><polyline points="71.892 293.554 78.426 312.937 53.94 317.956" fill="none" stroke="#1e1033" stroke-linecap="round" stroke-linejoin="round" stroke-width="2"/><polyline points="93.23 305.175 95.519 326.731 70.209 332.526" fill="none" stroke="#1e1033" stroke-linecap="round" stroke-linejoin="round" stroke-width="2"/><polyline points="105.412 320.177 107.784 342.623 84.365 344.328" fill="none" stroke="#1e1033" stroke-linecap="round" stroke-linejoin="round" stroke-width="2"/><path d="M58.001,337.032s-1.805-14.094-23.975-13.908c6.12,16.324,23.975,13.908,23.975,13.908Z" fill="none" stroke="#1e1033" stroke-linecap="round" stroke-linejoin="round" stroke-width="2"/></g></svg>