<?xml version="1.0" encoding="UTF-8"?><svg xmlns="http://www.w3.org/2000/svg" width="400" height="400" viewBox="0 0 400 400"><g ><g id="koala"><g id="character_koala"><g id="left_leg_group"><path id="left_leg" d="M157.362,383.977c-22.748-1.555-32.969,2.247-33.598-21.214-.629-23.461.465-73.129.465-73.129,0,0,11.023-14.215,33.988-12.411,22.965,1.804,25.414,44.703,26.64,70.696,1.226,25.993,9.721,38.602-27.494,36.058Z"  fill="#bbbdbf"/><path id="left_foot_front" d="M124.881,372.3s29.572,10.415,61.389,1.474c0,0,3.854,12-31.727,10.671-35.581-1.329-29.662-12.145-29.662-12.145Z"  fill="#fff"/><path id="left_leg_outer_stroke" d="M165.769,386.703c-2.583,0-5.431-.11-8.572-.325-3.395-.232-6.573-.345-9.377-.445-16.132-.577-25.869-.927-26.463-23.106-.624-23.251.454-72.75.465-73.247l.017-.794.487-.628c.483-.622,12.085-15.215,36.08-13.336,25.509,2.004,27.686,48.178,28.857,72.984.197,4.181.593,8.085.942,11.529.98,9.663,1.754,17.295-2.957,22.162-3.44,3.556-9.451,5.206-19.477,5.206ZM126.618,290.538c-.14,6.678-1.022,50.706-.447,72.16.473,17.657,5.853,17.85,21.821,18.422,2.841.102,6.062.216,9.535.455h0c13.397.914,21.111-.172,24.259-3.427,3.155-3.259,2.515-9.58,1.627-18.328-.355-3.504-.758-7.478-.962-11.789-1.1-23.323-3.147-66.737-24.423-68.408-18.956-1.499-29.115,8.361-31.409,10.915Z"  fill="#231f20"/></g><g id="right_leg_group"><path id="right_leg" d="M226.14,385.906c22.74-1.677,32.98,2.069,33.484-21.394s-.857-73.126-.857-73.126c0,0-11.099-14.155-34.054-12.228-22.955,1.927-25.174,44.839-26.26,70.838-1.086,25.999-9.514,38.653,27.688,35.91Z"  fill="#bbbdbf"/><path id="right_foot_front" d="M196.578,373.374s29.572,10.415,61.389,1.474c0,0,3.854,12-31.727,10.671-35.581-1.329-29.662-12.145-29.662-12.145Z"  fill="#fff"/><path id="right_leg_outer_stroke" d="M217.271,388.678c-9.744,0-15.625-1.623-19.029-5.103-4.737-4.843-4.004-12.477-3.077-22.144.331-3.447.706-7.354.881-11.537,1.036-24.812,2.967-70.996,28.464-73.137,23.984-2.014,35.665,12.522,36.15,13.141l.491.626.022.795c.013.497,1.357,49.989.858,73.243-.476,22.184-10.21,22.584-26.339,23.249-2.803.116-5.981.246-9.375.497h0c-3.333.246-6.339.37-9.046.37ZM228.999,281.383c-1.314,0-2.675.056-4.086.174-21.266,1.786-23.08,45.21-24.055,68.539-.18,4.313-.561,8.288-.898,11.795-.839,8.751-1.446,15.073,1.726,18.317,3.166,3.236,10.878,4.288,24.277,3.297,3.472-.256,6.691-.389,9.532-.505,15.965-.658,21.343-.88,21.722-18.541.46-21.457-.659-65.482-.835-72.155-2.126-2.343-11.029-10.921-27.382-10.921Z"  fill="#231f20"/></g><ellipse id="left_leg_shadow" cx="157.376" cy="309.453" rx="19.847" ry="36.302" transform="translate(-181.229 386.102) rotate(-75.799)"  fill="#d2a2b9" opacity=".58"/><path id="right_leg_shadow" d="M257.876,305.454c7.905,11.374-15.84,20.172-31.376,23.163-15.537,2.991-27.548,5.519-29.62-5.244-2.072-10.763,13.576-29,29.113-31.991,15.537-2.991,25.628,5.072,31.884,14.073Z"  fill="#d2a2b9" opacity=".58"/><g id="belly_center_group"><path id="belly_main" d="M192.843,326.615c-26.764-.525-64.502-8.318-68.929-29.369-4.427-21.051,6.25-87.274,21.182-87.984,14.933-.71,98.348-6.649,103.69,7.326,5.343,13.975,18.825,84.031,10.486,90.985-8.339,6.954-35.371,19.651-66.429,19.042Z"  fill="#bbbdbf"/><path id="belly_color_spot" d="M137.086,310.975s-6.287-65.406,21.293-71.123c23.153-4.799,63.07-8.227,76.233,5.073,5.699,5.759,9.698,63.016,8.825,69.624-.873,6.608-64.025,24.633-106.351-3.575Z"  fill="#f8cade"/><path id="outer_belly_stroke" d="M195.057,329.045c-.752,0-1.503-.008-2.261-.022h0c-24.116-.473-66.258-7.594-71.238-31.282-3.786-18.003,3.049-69.82,15.423-85.828,2.49-3.222,5.182-4.923,8.001-5.057,1.249-.059,2.977-.155,5.1-.273,66-3.664,97.136-.844,100.953,9.145,4.178,10.927,20.069,85.112,9.779,93.696-7.817,6.519-33.917,19.621-65.757,19.621ZM192.89,324.207c31.163.593,57.589-12.438,64.84-18.483,1.684-1.405,3.38-11.549-.952-40.657-3.037-20.404-7.748-41.096-10.241-47.619-1.594-4.168-16.206-10.495-96.188-6.057-2.139.119-3.882.216-5.139.276-1.675.079-3.328,1.779-4.419,3.191-10.771,13.935-18.391,63.488-14.521,81.892,3.794,18.041,37.193,26.88,66.62,27.457h0Z"  fill="#231f20"/></g><ellipse id="center_chin_shadow" cx="195.447" cy="216.118" rx="61.879" ry="19.847" transform="translate(-4.009 3.694) rotate(-1.072)"  fill="#d2a2b9" opacity=".58"/><path id="right_arm_pink_shadow" d="M242.136,225.068s-4.656,77.694,13.27,85.567-1.255-91.715-1.255-91.715l-12.015,6.148Z"  fill="#d2a2b9" opacity=".58"/><g id="left_arm_group"><path id="left_arm" d="M97.775,309.197c-19.98-3.257-12.439-38.918,10.7-69.518,23.139-30.6,30.303-27.544,30.976-19.773.673,7.77-7.487,94.865-41.676,89.292Z"  fill="#bbbdbf"/><path id="left_arm_stroke" d="M100.894,311.863c-1.152,0-2.321-.097-3.505-.29h0c-5.662-.923-9.775-4.208-11.893-9.497-5.549-13.857,3.111-40.113,21.06-63.85,19.211-25.408,26.637-26.847,30.55-25.716,1.579.455,4.296,1.994,4.746,7.188.574,6.629-4.901,66.339-25.798,85.722-4.619,4.284-9.705,6.442-15.159,6.443ZM135.374,217.091c-1.648,0-8.148,1.782-24.979,24.04-16.712,22.103-25.305,46.981-20.429,59.154,1.499,3.743,4.18,5.88,8.197,6.535h0c5.321.862,10.102-.746,14.615-4.93,19.339-17.938,24.804-75.669,24.274-81.776-.054-.627-.307-2.695-1.281-2.975-.066-.019-.195-.046-.397-.046Z"  fill="#231f20"/></g><path id="left_arm_inner_shadow" d="M141.821,223.402s-42.25,85.779-37.314,85.711c26.193-.359,33.113-88.984,33.113-88.984l4.201,3.273Z"  fill="#d2a2b9" opacity=".58"/><g id="right_arm_group"><path id="right_arm" d="M272.908,314.416c20.24.384,19.226-36.051,1.96-70.309-17.266-34.258-24.863-32.538-26.921-25.015-2.058,7.523-9.672,94.667,24.961,95.325Z"  fill="#bbbdbf"/><path id="right_arm_stroke" d="M273.221,316.828c-.12,0-.239-.002-.359-.003h0c-6.877-.132-12.683-3.295-17.256-9.406-17.075-22.818-11.738-82.543-9.982-88.962,1.375-5.029,4.324-6.055,5.959-6.219,4.056-.404,11.101,2.344,25.435,30.786,13.394,26.573,17.197,53.958,9.25,66.593-2.972,4.723-7.478,7.211-13.047,7.211ZM272.953,312.009c4.059.085,7.091-1.543,9.238-4.957,6.982-11.101,2.997-37.117-9.474-61.86-14.087-27.951-19.99-28.243-20.654-28.161-1.008.1-1.628,2.09-1.794,2.696-1.617,5.914-6.609,63.69,9.194,84.808,3.687,4.927,8.1,7.373,13.49,7.475h0Z"  fill="#231f20"/></g><path id="right_arm_inner_shadow" d="M243.437,223.824s27.409,91.607,22.553,90.72c-25.769-4.706-17.867-93.249-17.867-93.249l-4.687,2.529Z"  fill="#d2a2b9" opacity=".58"/><g id="left_ear_group"><path id="left_outer_ear_stroke" d="M95.797,116.645c-7.766,0-15.686-1.663-23.222-5.175-.909-.423-1.82-.88-2.728-1.365-5.05,2.178-9.621,2.112-13.035-.224-3.226-2.21-4.915-6.02-4.951-10.989-3.407.342-5.865-.636-7.492-1.753-4.976-3.407-6.227-10.812-3.568-19.892-.491-.229-.961-.495-1.409-.803-7.84-5.368-6.181-20.476,3.858-35.141,2.613-3.817,5.536-7.204,8.69-10.071,14.99-19.137,42.229-25.364,64.915-14.79h0c13.037,6.073,23.003,16.715,28.062,29.965,5.075,13.292,4.607,27.615-1.317,40.327-8.795,18.875-27.79,29.91-47.802,29.912ZM70.068,100.985l1.941,1.132c1.309.765,2.64,1.464,3.957,2.079,22.942,10.688,50.019,1.334,60.359-20.852,4.998-10.728,5.387-22.829,1.093-34.075-4.311-11.289-12.817-20.364-23.953-25.553h0c-19.433-9.053-42.731-3.708-55.398,12.711l-.5.538c-2.742,2.455-5.402,5.523-7.696,8.872-7.86,11.483-8.784,22.04-5.946,23.984.442.301,1.096.433,1.964.378l6.384-.378-2.436,5.913c-3.218,7.813-2.883,13.448-.934,14.783,1.028.702,3.085.477,5.507-.602l2.795-1.243,3.483,4.255-.372,1.862c-.829,4.148-.425,7.473,1.028,8.469,1.218.831,3.8.368,6.743-1.21l1.98-1.061Z"  fill="#231f20"/><path id="left_outer_ear" d="M115.16,20.078c-21.666-10.095-46.647-3.758-60.27,13.897-2.894,2.591-5.754,5.831-8.329,9.593-8.474,12.379-10.669,25.615-4.902,29.562,1.246.853,2.772,1.174,4.468,1.074-3.65,8.864-3.711,16.735.51,19.624,2.365,1.619,5.708,1.399,9.406-.247.113.141.223.284.338.423-1.154,5.781-.351,10.477,2.698,12.564,2.681,1.836,6.617,1.316,10.907-.985,1.38.806,2.806,1.561,4.284,2.25,24.989,11.644,54.401,1.439,65.692-22.794,11.291-24.233.187-53.317-24.802-64.961Z"  fill="#bbbdbf"/><circle id="left_inner_ear" cx="97.347" cy="65.863" r="44.835" transform="translate(10.88 145.474) rotate(-76.717)"  fill="#f8cade"/></g><g id="right_ear_group"><path id="right_outer_ear_stroke" d="M256.401,86.734c-5.924-12.712-6.391-27.035-1.317-40.327,5.059-13.25,15.025-23.892,28.062-29.965h0c22.686-10.574,49.925-4.347,64.915,14.79,3.154,2.867,6.076,6.254,8.69,10.071,10.04,14.666,11.698,29.774,3.858,35.141-.448.307-.919.574-1.409.803,2.659,9.08,1.408,16.486-3.568,19.892-1.627,1.116-4.085,2.094-7.492,1.753-.036,4.97-1.724,8.779-4.951,10.989-3.414,2.336-7.986,2.402-13.035.224-.908.486-1.819.942-2.728,1.365-7.536,3.512-15.456,5.175-23.222,5.175-20.012-.002-39.007-11.037-47.802-29.912ZM331.912,102.047c2.943,1.579,5.525,2.041,6.743,1.21,1.453-.996,1.858-4.321,1.028-8.469l-.372-1.862,3.483-4.255,2.795,1.243c2.422,1.079,4.479,1.304,5.507.602,1.949-1.336,2.284-6.97-.934-14.783l-2.436-5.913,6.384.378c.869.055,1.522-.077,1.964-.378,2.838-1.944,1.914-12.501-5.946-23.984-2.294-3.349-4.954-6.417-7.696-8.872l-.5-.538c-12.667-16.418-35.964-21.764-55.398-12.711h0c-11.135,5.189-19.642,14.264-23.953,25.553-4.294,11.247-3.905,23.348,1.093,34.075,10.34,22.186,37.418,31.54,60.359,20.852,1.317-.615,2.648-1.314,3.957-2.079l1.941-1.132,1.98,1.061Z"  fill="#231f20"/><path id="right_outer_ear" d="M284.84,20.078c21.666-10.095,46.647-3.758,60.27,13.897,2.894,2.591,5.754,5.831,8.329,9.593,8.474,12.379,10.669,25.615,4.902,29.562-1.246.853-2.772,1.174-4.468,1.074,3.65,8.864,3.711,16.735-.51,19.624-2.365,1.619-5.708,1.399-9.406-.247-.113.141-.223.284-.338.423,1.154,5.781.351,10.477-2.698,12.564-2.681,1.836-6.617,1.316-10.907-.985-1.38.806-2.806,1.561-4.284,2.25-24.989,11.644-54.401,1.439-65.692-22.794-11.291-24.233-.187-53.317,24.802-64.961Z"  fill="#bbbdbf"/><circle id="right_inner_ear" cx="302.653" cy="65.863" r="44.835" transform="translate(-6.642 49.33) rotate(-9.217)"  fill="#f8cade"/></g><g id="base_head_group"><path id="head_main" d="M311.201,140.654c0,64.738-52.48,86.147-117.218,86.147s-117.218-21.409-117.218-86.147S129.246,23.437,193.983,23.437s117.218,52.48,117.218,117.218Z"  fill="#bbbdbf"/><path id="head_outer_stroke" d="M193.983,229.209c-78.26,0-119.626-30.622-119.626-88.554,0-65.962,53.664-119.626,119.626-119.626s119.625,53.664,119.625,119.626c0,57.933-41.366,88.554-119.625,88.554ZM193.983,25.844c-63.307,0-114.81,51.503-114.81,114.81,0,29.372,11.174,51.347,33.213,65.316,19.287,12.225,46.741,18.423,81.597,18.423s62.309-6.198,81.596-18.423c22.039-13.968,33.213-35.943,33.213-65.316,0-63.307-51.503-114.81-114.809-114.81Z"  fill="#231f20"/></g><circle id="left_eye" cx="139.732" cy="140.928" r="22.31" transform="translate(-56.13 172.929) rotate(-54.524)"  fill="#231f20"/><path id="mouth" d="M206.31,175.42c-.652.038-1.305.022-1.957-.049-3.39-.366-5.967-2.153-7.541-3.599-2.281,1.739-5.897,3.795-10.213,3.685-3.649-.094-6.976-1.721-9.888-4.834-.908-.972-.857-2.496.114-3.404.973-.908,2.496-.857,3.404.114,1.997,2.137,4.182,3.25,6.495,3.309,4.101.105,7.626-2.986,8.611-3.934.504-.486,1.191-.731,1.894-.664.698.065,1.333.431,1.739,1.001.015.021,2.354,3.175,5.942,3.542,2.488.258,5.141-.877,7.882-3.366.987-.892,2.509-.819,3.401.165.893.985.82,2.507-.165,3.401-3.184,2.89-6.445,4.443-9.718,4.633Z"  fill="#231f20"/><path id="center_nose_to_mouth" d="M196.421,170.838c-.042.002-.085.003-.127.003-1.33-.009-2.401-1.094-2.392-2.424l.093-14.231c.009-1.33,1.105-2.42,2.424-2.392,1.33.009,2.401,1.094,2.392,2.424l-.093,14.231c-.008,1.287-1.026,2.332-2.297,2.39Z"  fill="#231f20"/><path id="left_eye_glint" d="M136.661,130.325c-3.285,2.029,13.148,6.835,13.82,11.576.672,4.742,3.696-8.889-2.649-13.318-6.345-4.429-10.005,1.022-11.171,1.742Z"  fill="#fff"/><path id="left_small_pupil" d="M136.06,142.282c-.125,1.376-1.341,2.391-2.718,2.266s-2.391-1.341-2.266-2.718c.125-1.376,1.341-2.391,2.718-2.266,1.376.125,2.391,1.341,2.266,2.718Z"  fill="#fff"/><circle id="right_eye" cx="249.161" cy="142.988" r="22.31" transform="translate(25.769 323.607) rotate(-68.807)"  fill="#231f20"/><path id="right_eye_glint" d="M246.09,132.385c-3.285,2.029,13.148,6.835,13.82,11.576s3.696-8.889-2.649-13.318c-6.345-4.429-10.005,1.022-11.171,1.742Z"  fill="#fff"/><path id="right_small_pupil" d="M245.489,144.342c-.125,1.376-1.341,2.391-2.718,2.266s-2.391-1.341-2.266-2.718,1.341-2.391,2.718-2.266,2.391,1.341,2.266,2.718Z"  fill="#fff"/><path id="left_outer_cheek" d="M117.263,176.897c-3.609,4.103-7.671,6.431-9.072,5.198-1.401-1.232.389-5.558,3.998-9.661,3.609-4.103,7.671-6.431,9.072-5.198,1.401,1.232-.389,5.558-3.998,9.661Z"  fill="#f7bed7"/><path id="left_inner_cheek" d="M131.595,176.897c-3.609,4.103-7.671,6.431-9.072,5.198-1.401-1.232.389-5.558,3.998-9.661,3.609-4.103,7.671-6.431,9.072-5.198,1.401,1.232-.389,5.558-3.998,9.661Z"  fill="#f7bed7"/><path id="right_inner_cheek" d="M262.245,176.897c-3.609,4.103-7.671,6.431-9.072,5.198-1.401-1.232.389-5.558,3.998-9.661,3.609-4.103,7.671-6.431,9.072-5.198,1.401,1.232-.389,5.558-3.998,9.661Z"  fill="#f7bed7"/><path id="right_outer_cheek" d="M276.578,176.897c-3.609,4.103-7.671,6.431-9.072,5.198-1.401-1.232.389-5.558,3.998-9.661,3.609-4.103,7.671-6.431,9.072-5.198,1.401,1.232-.389,5.558-3.998,9.661Z"  fill="#f7bed7"/><path id="nose" d="M208.925,141.203c0-9.703-8.872-12.102-12.477-12.175v-.007c-.028,0-.063.003-.091.004-.028,0-.063-.004-.091-.004v.007c-3.604.074-12.477,2.472-12.477,12.175s5.745,26.755,12.477,27.174v.039c.042,0,.083-.018.125-.02.042.001.083.02.126.02v-.039c6.731-.42,12.408-17.436,12.408-27.174Z"  fill="#231f20"/></g></g></g></svg>